<svg xmlns="http://www.w3.org/2000/svg" viewBox="0 0 960 350" width="960" height="350" role="img" aria-labelledby="t">
<title id="t">Instant Notes, wait after you stop talking: local Whisper on CPU 79 s, Groq Whisper batch 787 ms, streamed during recording 78 ms.</title>
<style>
.sans { font-family: -apple-system, BlinkMacSystemFont, "Segoe UI", "Noto Sans", Helvetica, Arial, sans-serif; }
.serif { font-family: Georgia, "Times New Roman", Times, serif; }
.mono { font-family: ui-monospace, SFMono-Regular, "SF Mono", Menlo, Consolas, "Liberation Mono", monospace; }
.title { font-size: 32px; font-weight: 600; fill: #1d2433; }
.sub { font-size: 20px; fill: #575d6b; }
.row { font-size: 21px; fill: #1d2433; }
.tick { font-size: 17px; fill: #575d6b; font-variant-numeric: tabular-nums; }
.value { font-size: 21px; font-weight: 600; fill: #1d2433; }
.note { font-size: 19px; fill: #575d6b; }
.hero { font-size: 48px; font-weight: 600; fill: #1d2433; }
</style>
<rect width="960" height="350" rx="14" fill="#fbf8f1"/>
<rect x="0.75" y="0.75" width="958.5" height="348.5" rx="13.25" fill="none" stroke="#d9d2c3" stroke-width="1.5"/>
<rect x="18" y="-6" width="92" height="26" fill="#e8dcb5" opacity="0.8" transform="rotate(-8 64 7)"/>
<rect x="850" y="-6" width="92" height="26" fill="#e8dcb5" opacity="0.8" transform="rotate(7 896 7)"/>
<text x="40" y="62" class="sans title">Wait after you stop talking</text>
<text x="40" y="96" class="sans sub">Instant Notes · hotkey released → text on screen · log scale, lower is better</text>
<line x1="350" y1="128" x2="350" y2="292" stroke="#e8e1d1" stroke-width="1"/>
<text x="350" y="322" class="mono tick" text-anchor="middle">10 ms</text>
<line x1="492.5" y1="128" x2="492.5" y2="292" stroke="#e8e1d1" stroke-width="1"/>
<text x="492.5" y="322" class="mono tick" text-anchor="middle">100 ms</text>
<line x1="635" y1="128" x2="635" y2="292" stroke="#e8e1d1" stroke-width="1"/>
<text x="635" y="322" class="mono tick" text-anchor="middle">1 s</text>
<line x1="777.5" y1="128" x2="777.5" y2="292" stroke="#e8e1d1" stroke-width="1"/>
<text x="777.5" y="322" class="mono tick" text-anchor="middle">10 s</text>
<line x1="920" y1="128" x2="920" y2="292" stroke="#e8e1d1" stroke-width="1"/>
<text x="920" y="322" class="mono tick" text-anchor="middle">100 s</text>
<text x="330" y="165" class="sans row" text-anchor="end">Local Whisper, CPU</text>
<circle cx="905.4" cy="158" r="8" fill="#8c8678" stroke="#fbf8f1" stroke-width="2.5"/>
<text x="887.4" y="165" class="sans value" text-anchor="end">79 s</text>
<text x="330" y="217" class="sans row" text-anchor="end">Groq Whisper, batch</text>
<circle cx="620.2" cy="210" r="8" fill="#8c8678" stroke="#fbf8f1" stroke-width="2.5"/>
<text x="638.2" y="217" class="sans value">787 ms</text>
<text x="330" y="269" class="sans row" text-anchor="end">Streamed during recording</text>
<circle cx="477.1" cy="262" r="8" fill="#2a5bd7" stroke="#fbf8f1" stroke-width="2.5"/>
<text x="495.1" y="269" class="sans value">78 ms<tspan class="note" font-weight="400" dx="10">· about 1,000× less waiting</tspan></text>
</svg>
